<svg width="164" height="44" viewBox="0 0 164 44" fill="none" xmlns="http://www.w3.org/2000/svg">
<path d="M164 11.0469C164 16.8458 159.299 21.5469 153.5 21.5469H143V11.0469C143 5.2479 147.701 0.546875 153.5 0.546875C159.299 0.546875 164 5.2479 164 11.0469Z" fill="url(#paint0_linear_41_57)"/>
<rect x="137.375" y="11.9219" width="4.6875" height="25" fill="url(#paint1_linear_41_57)"/>
<rect x="128" y="22.8594" width="25" height="4.6875" fill="url(#paint2_linear_41_57)"/>
<path d="M1.69058 36.4531V17.4274H5.15224L12.4512 28.4564H10.8143L18.0865 17.4274H21.5482V36.4531H16.7984V25.3704L17.5498 25.5851L13.1758 32.1596H10.063L5.71577 25.5851L6.46713 25.3704V36.4531H1.69058ZM31.2411 36.7483C29.7742 36.7483 28.4771 36.4621 27.3501 35.8896C26.223 35.2992 25.3375 34.4853 24.6935 33.4477C24.0494 32.41 23.7274 31.2204 23.7274 29.8787C23.7274 28.5548 24.0405 27.383 24.6666 26.3633C25.2928 25.3257 26.1425 24.5117 27.2159 23.9214C28.3072 23.3131 29.5326 23.009 30.8923 23.009C32.2161 23.009 33.3879 23.2952 34.4076 23.8677C35.4452 24.4223 36.2502 25.2005 36.8227 26.2023C37.4131 27.1863 37.7082 28.3133 37.7082 29.5835C37.7082 29.8518 37.6904 30.1291 37.6546 30.4153C37.6367 30.6837 37.583 30.9968 37.4936 31.3546L25.9279 31.4082V28.4028L35.642 28.3222L33.5489 29.6371C33.531 28.9037 33.4237 28.3044 33.2269 27.8392C33.0301 27.3562 32.7438 26.9895 32.3682 26.739C31.9925 26.4886 31.5184 26.3633 30.9459 26.3633C30.3556 26.3633 29.8457 26.5064 29.4164 26.7927C28.987 27.0789 28.656 27.4814 28.4235 28.0002C28.1909 28.519 28.0746 29.1452 28.0746 29.8787C28.0746 30.63 28.1999 31.2741 28.4503 31.8107C28.7008 32.3295 29.0586 32.7231 29.5237 32.9915C29.9888 33.2598 30.5613 33.394 31.2411 33.394C31.8851 33.394 32.4487 33.2866 32.9317 33.072C33.4326 32.8573 33.8798 32.5263 34.2734 32.0791L36.7154 34.521C36.0713 35.2545 35.2842 35.8091 34.3539 36.1848C33.4415 36.5605 32.4039 36.7483 31.2411 36.7483ZM45.1068 36.7215C43.8367 36.7215 42.7185 36.4263 41.7525 35.8359C40.7865 35.2456 40.0261 34.4405 39.4716 33.4208C38.9349 32.3832 38.6665 31.2114 38.6665 29.9055C38.6665 28.5816 38.9349 27.4009 39.4716 26.3633C40.0261 25.3257 40.7775 24.5207 41.7257 23.9482C42.6917 23.3579 43.8188 23.0627 45.1068 23.0627C45.9298 23.0627 46.699 23.2147 47.4146 23.5189C48.1302 23.8051 48.7295 24.2166 49.2125 24.7532C49.6955 25.2899 49.9818 25.8982 50.0712 26.578V32.9915C49.9818 33.6713 49.6955 34.2974 49.2125 34.8699C48.7295 35.4424 48.1302 35.8985 47.4146 36.2384C46.699 36.5605 45.9298 36.7215 45.1068 36.7215ZM45.9387 32.5621C46.4575 32.5621 46.9047 32.4548 47.2804 32.2401C47.6561 32.0075 47.9513 31.6945 48.166 31.3009C48.3985 30.8894 48.5148 30.4153 48.5148 29.8787C48.5148 29.3599 48.4075 28.9037 48.1928 28.5101C47.9781 28.1165 47.674 27.8034 47.2804 27.5709C46.9047 27.3383 46.4664 27.222 45.9655 27.222C45.4646 27.222 45.0174 27.3383 44.6238 27.5709C44.2481 27.8034 43.944 28.1255 43.7114 28.5369C43.4968 28.9305 43.3894 29.3777 43.3894 29.8787C43.3894 30.3975 43.4968 30.8626 43.7114 31.2741C43.9261 31.6676 44.2302 31.9807 44.6238 32.2133C45.0174 32.4458 45.4557 32.5621 45.9387 32.5621ZM52.9157 36.4531H48.327V32.9378L48.9978 29.7176L48.2465 26.5512V16.8907H52.9157V36.4531ZM55.6136 36.4531V23.331H60.3097V36.4531H55.6136ZM57.9482 21.8014C57.2505 21.8014 56.6691 21.5689 56.204 21.1037C55.7388 20.6207 55.5063 20.0214 55.5063 19.3058C55.5063 18.6081 55.7388 18.0178 56.204 17.5347C56.6691 17.0517 57.2505 16.8102 57.9482 16.8102C58.6817 16.8102 59.2721 17.0517 59.7193 17.5347C60.1844 18.0178 60.417 18.6081 60.417 19.3058C60.417 20.0214 60.1844 20.6207 59.7193 21.1037C59.2721 21.5689 58.6817 21.8014 57.9482 21.8014ZM72.5835 36.7483C71.1345 36.7483 69.7927 36.5068 68.5584 36.0238C67.324 35.5229 66.2416 34.8341 65.3114 33.9575C64.399 33.063 63.6834 32.0165 63.1646 30.8179C62.6637 29.6193 62.4132 28.3222 62.4132 26.9269C62.4132 25.5136 62.6637 24.2166 63.1646 23.0358C63.6834 21.8372 64.399 20.7996 65.3114 19.923C66.2416 19.0464 67.315 18.3577 68.5315 17.8568C69.7659 17.3559 71.0987 17.1054 72.5299 17.1054C74.0326 17.1054 75.3833 17.3469 76.5819 17.8299C77.7805 18.2951 78.836 18.948 79.7484 19.7889L76.5282 23.009C76.081 22.5081 75.5264 22.1145 74.8645 21.8283C74.2026 21.542 73.4244 21.3989 72.5299 21.3989C71.7606 21.3989 71.054 21.5242 70.4099 21.7746C69.7838 22.0251 69.2382 22.4008 68.773 22.9017C68.3079 23.3847 67.9412 23.9661 67.6728 24.6459C67.4224 25.3257 67.2971 26.086 67.2971 26.9269C67.2971 27.7677 67.4224 28.528 67.6728 29.2078C67.9412 29.8876 68.3079 30.478 68.773 30.9789C69.2382 31.4619 69.7838 31.8376 70.4099 32.1059C71.054 32.3564 71.7606 32.4816 72.5299 32.4816C73.4244 32.4816 74.2115 32.3474 74.8913 32.0791C75.5711 31.7929 76.1525 31.3903 76.6356 30.8715L79.8557 34.0917C78.9255 34.9325 77.87 35.5855 76.6892 36.0506C75.5264 36.5157 74.1578 36.7483 72.5835 36.7483ZM86.8224 36.7215C85.6059 36.7215 84.5236 36.4263 83.5754 35.8359C82.6273 35.2456 81.8849 34.4405 81.3482 33.4208C80.8115 32.3832 80.5431 31.2114 80.5431 29.9055C80.5431 28.5816 80.8115 27.4009 81.3482 26.3633C81.8849 25.3257 82.6273 24.5207 83.5754 23.9482C84.5236 23.3579 85.6059 23.0627 86.8224 23.0627C87.6454 23.0627 88.3967 23.2147 89.0765 23.5189C89.7563 23.8051 90.3109 24.2166 90.7403 24.7532C91.1875 25.2899 91.4559 25.8982 91.5453 26.578V33.1793C91.4559 33.877 91.1875 34.4942 90.7403 35.0309C90.3109 35.5497 89.7563 35.9612 89.0765 36.2653C88.3967 36.5694 87.6454 36.7215 86.8224 36.7215ZM87.8153 32.5621C88.5846 32.5621 89.2018 32.3117 89.6669 31.8107C90.1499 31.3098 90.3914 30.6658 90.3914 29.8787C90.3914 29.3599 90.2841 28.9037 90.0694 28.5101C89.8547 28.1165 89.5506 27.8034 89.157 27.5709C88.7814 27.3383 88.3431 27.222 87.8421 27.222C87.3412 27.222 86.894 27.3383 86.5004 27.5709C86.1247 27.8034 85.8206 28.1255 85.588 28.5369C85.3734 28.9305 85.266 29.3777 85.266 29.8787C85.266 30.3975 85.3734 30.8626 85.588 31.2741C85.8027 31.6676 86.1068 31.9807 86.5004 32.2133C86.894 32.4458 87.3323 32.5621 87.8153 32.5621ZM90.2036 36.4531V32.9378L90.8745 29.7176L90.2036 26.5512V23.331H94.7923V36.4531H90.2036ZM97.5171 36.4531V23.331H102.186V36.4531H97.5171ZM102.186 29.3151L100.093 27.544C100.612 26.0592 101.301 24.9411 102.159 24.1897C103.018 23.4384 104.136 23.0627 105.514 23.0627C106.14 23.0627 106.677 23.1432 107.124 23.3042C107.589 23.4652 107.983 23.7156 108.305 24.0556L105.594 27.6782C105.451 27.5172 105.245 27.392 104.977 27.3025C104.727 27.1952 104.44 27.1415 104.118 27.1415C103.51 27.1415 103.036 27.3294 102.696 27.7051C102.356 28.0628 102.186 28.5995 102.186 29.3151ZM115.492 36.7483C114.025 36.7483 112.728 36.4621 111.601 35.8896C110.474 35.2992 109.589 34.4853 108.945 33.4477C108.301 32.41 107.979 31.2204 107.979 29.8787C107.979 28.5548 108.292 27.383 108.918 26.3633C109.544 25.3257 110.394 24.5117 111.467 23.9214C112.558 23.3131 113.784 23.009 115.143 23.009C116.467 23.009 117.639 23.2952 118.659 23.8677C119.696 24.4223 120.501 25.2005 121.074 26.2023C121.664 27.1863 121.959 28.3133 121.959 29.5835C121.959 29.8518 121.941 30.1291 121.906 30.4153C121.888 30.6837 121.834 30.9968 121.745 31.3546L110.179 31.4082V28.4028L119.893 28.3222L117.8 29.6371C117.782 28.9037 117.675 28.3044 117.478 27.8392C117.281 27.3562 116.995 26.9895 116.619 26.739C116.244 26.4886 115.77 26.3633 115.197 26.3633C114.607 26.3633 114.097 26.5064 113.667 26.7927C113.238 27.0789 112.907 27.4814 112.675 28.0002C112.442 28.519 112.326 29.1452 112.326 29.8787C112.326 30.63 112.451 31.2741 112.701 31.8107C112.952 32.3295 113.31 32.7231 113.775 32.9915C114.24 33.2598 114.812 33.394 115.492 33.394C116.136 33.394 116.7 33.2866 117.183 33.072C117.684 32.8573 118.131 32.5263 118.525 32.0791L120.966 34.521C120.322 35.2545 119.535 35.8091 118.605 36.1848C117.693 36.5605 116.655 36.7483 115.492 36.7483Z" fill="#19222D"/>
<defs>
<linearGradient id="paint0_linear_41_57" x1="153.5" y1="0.546875" x2="153.5" y2="21.5469" gradientUnits="userSpaceOnUse">
<stop offset="0.32" stop-color="#E52051"/>
<stop offset="1" stop-color="#FF6769"/>
</linearGradient>
<linearGradient id="paint1_linear_41_57" x1="142.062" y1="24.4219" x2="137.375" y2="24.4219" gradientUnits="userSpaceOnUse">
<stop stop-color="#FF0C6C"/>
<stop offset="1" stop-color="#E52051" stop-opacity="0.99"/>
</linearGradient>
<linearGradient id="paint2_linear_41_57" x1="153" y1="25.2031" x2="128" y2="25.2031" gradientUnits="userSpaceOnUse">
<stop stop-color="#FF0C6C"/>
<stop offset="1" stop-color="#E52051" stop-opacity="0.99"/>
</linearGradient>
</defs>
</svg>
